# AST/ASF file generated using VICON BodyLanguage
# -----------------------------------------------
:version 1.10
:name VICON
:units
  mass 1.0
  length 0.45
  angle deg
:documentation
   .ast/.asf automatically generated from VICON data using
   VICON BodyBuilder and BodyLanguage model FoxedUp or BRILLIANT.MOD
:root
   order TX TY TZ RX RY RZ
   axis XYZ
   position 0 0 0  
   orientation 0 0 0 
:bonedata
  begin
     id 1 
     name lhipjoint
     direction 0.714689 -0.624256 0.315473 
     length 2.45343 
     axis 0 0 0  XYZ
  end
  begin
     id 2 
     name lfemur
     direction 0.34202 -0.939693 0  
     length 6.59069  
     axis 0 0 20  XYZ
    dof rx ry rz
    limits (-160.0 20.0)
           (-70.0 70.0)
           (-60.0 70.0)
  end
  begin
     id 3 
     name ltibia
     direction 0.34202 -0.939693 0   
     length 6.73476   
     axis 0 0 20   XYZ
    dof rx
    limits (-10.0 170.0)
  end
  begin
     id 4 
     name lfoot
     direction 0.0718085 -0.197292 0.977711   
     length 1.52607   
     axis -90 7.62852e-016 20   XYZ
    dof rx rz
    limits (-45.0 90.0)
           (-70.0 20.0)
  end
  begin
     id 5 
     name ltoes
     direction 1.53553e-011 -4.22024e-011 1   
     length 0.777832   
     axis -90 7.62852e-016 20   XYZ
    dof rx
    limits (-90.0 20.0)
  end
  begin
     id 6 
     name rhipjoint
     direction -0.727419 -0.612432 0.309497   
     length 2.50079  
     axis 0 0 0  XYZ 
  end
  begin
     id 7 
     name rfemur
     direction -0.34202 -0.939693 0   
     length 6.51665   
     axis 0 0 -20   XYZ
    dof rx ry rz
    limits (-160.0 20.0)
           (-70.0 70.0)
           (-70.0 60.0)
  end
  begin
     id 8 
     name rtibia
     direction -0.34202 -0.939693 0   
     length 6.48919   
     axis 0 0 -20   XYZ
    dof rx
    limits (-10.0 170.0)
 end
 begin
     id 9 
     name rfoot
     direction -0.112205 -0.308282 0.944655   
     length 1.68717  
     axis -90 -7.62852e-016 -20   XYZ
    dof rx rz
    limits (-45.0 90.0)
           (-20.0 70.0)
  end
  begin
     id 10 
     name rtoes
     direction -1.53583e-011 -4.21993e-011 1   
     length 0.846859   
     axis -90 -7.62852e-016 -20   XYZ
    dof rx
    limits (-90.0 20.0)
  end
  begin
     id 11 
     name lowerback
     direction -0.00119603 0.996364 -0.0851956   
     length 1.67242   
     axis 0 0 0   XYZ
    dof rx ry rz
    limits (-20.0 45.0)
           (-30.0 30.0)
           (-30.0 30.0)
  end
  begin
     id 12 
     name upperback
     direction -0.00531001 0.998318 0.0577248   
     length 1.64819   
     axis 0 0 0   XYZ
    dof rx ry rz
    limits (-20.0 45.0)
           (-30.0 30.0)
           (-30.0 30.0)
  end
  begin
     id 13 
     name thorax
     direction -0.00653676 0.995132 0.0983291   
     length 1.67429   
     axis 0 0 0   XYZ
    dof rx ry rz
    limits (-20.0 45.0)
           (-30.0 30.0)
           (-30.0 30.0)
  end
  begin
     id 14 
     name lowerneck
     direction 0.0141424 0.999886 0.00525412   
     length 1.59623   
     axis 0 0 0   XYZ
    dof rx ry rz
    limits (-20.0 45.0)
           (-30.0 30.0)
           (-30.0 30.0)
  end
  begin
     id 15 
     name upperneck
     direction -0.0640064 0.987178 -0.146232   
     length 1.59576   
     axis 0 0 0   XYZ
    dof rx ry rz
    limits (-20.0 45.0)
           (-30.0 30.0)
           (-30.0 30.0)
  end
  begin
     id 16
     name head
     direction -0.0222942 0.998496 -0.0500859  
     length 1.60959  
     axis 0 0 0   XYZ
    dof rx ry rz
    limits (-20.0 45.0)
           (-30.0 30.0)
           (-30.0 30.0)
  end
  begin
     id 17 
     name lclavicle
     direction 0.908549 0.392612 0.142806  
     length 2.80649  
     axis 0 0 0   XYZ
    dof ry rz
    limits (-20.0 10.0)
           (0.0 20.0)
  end
  begin
     id 18 
     name lhumerus
     direction 1 -4.48968e-011 1.08832e-028   
     length 4.2884   
     axis -180 -30 -90   XYZ
    dof rx ry rz
    limits (-60.0 90.0)
           (-90.0 90.0)
           (-90.0 90.0)
  end
  begin
     id 19
     name lradius
     direction 1 -4.48952e-011 -3.02642e-028   
     length 3.06552   
     axis -180 -30 -90   XYZ
    dof rx
    limits (-10.0 170.0)
  end
  begin
     id 20
     name lwrist
     direction 1 -4.49014e-011 1.58672e-027   
     length 1.53276   
     axis -1.65735e-015 90 90   XYZ
    dof ry
    limits (-180.0 0.0)
 end
  begin
     id 21 
     name lhand
     direction 1 -4.48928e-011 3.17344e-027   
     length 0.753045   
     axis -2.02492e-015 90 90   XYZ
    dof rx rz
    limits (-90.0 90.0)
           (-45.0 45.0)
  end
  begin
     id 22 
     name lfingers
     direction 1 -4.48958e-011 6.34687e-027   
     length 0.607124   
     axis -4.04985e-015 90 90   XYZ
    dof rx
    limits (0.0 90.0)
  end
  begin
     id 23
     name lthumb
     direction 0.707107 -6.34905e-011 0.707107   
     length 0.871712   
     axis -90 45 2.85299e-015   XYZ
    dof rx rz
    limits (-45.0 45.0)
           (-45.0 45.0)
  end
  begin
     id 24 
     name rclavicle
     direction -0.885098 0.45949 0.0739604   
     length 2.9478  
     axis 0 0 0   XYZ 
    dof ry rz
    limits (-10.0 20.0)
           (-20.0 0.0)
  end
  begin
     id 25 
     name rhumerus
     direction -1 -4.4898e-011 -2.61739e-027  
     length 4.52172   
     axis -180 30 90   XYZ
    dof rx ry rz
    limits (-90.0 60.0)
           (-90.0 90.0)
           (-90.0 90.0)
  end
  begin
     id 26 
     name rradius
     direction -1 -4.48945e-011 9.02552e-028   
     length 2.8914   
     axis -180 30 90   XYZ
    dof rx
    limits (-10.0 170.0)
  end
  begin
     id 27 
     name rwrist
     direction -1 -4.49018e-011 1.58672e-027   
     length 1.4457   
     axis -1.65735e-015 -90 -90   XYZ
    dof ry
    limits (-180.0 0.0)
  end
  begin
     id 28
     name rhand
     direction -1 -4.48825e-011 3.17344e-027   
     length 0.680541   
     axis -2.02492e-015 -90 -90   XYZ
    dof rx rz
    limits (-90.0 90.0)
           (-45.0 45.0)
  end
  begin
     id 29
     name rfingers
     direction -1 -4.49067e-011 6.34687e-027   
     length 0.54867   
     axis -4.04985e-015 -90 -90   XYZ
    dof rx
    limits (0.0 90.0)
  end
  begin
     id 30
     name rthumb
     direction -0.707107 -6.34833e-011 0.707107   
     length 0.787783   
     axis -90 -45 -2.85299e-015   XYZ
    dof rx rz
    limits (-45.0 45.0)
           (-45.0 45.0)
  end
:hierarchy
  begin
    root lhipjoint rhipjoint lowerback
    lhipjoint lfemur
    lfemur ltibia
    ltibia lfoot
    lfoot ltoes
    rhipjoint rfemur
    rfemur rtibia
    rtibia rfoot
    rfoot rtoes
    lowerback upperback
    upperback thorax
    thorax lowerneck lclavicle rclavicle
    lowerneck upperneck
    upperneck head
    lclavicle lhumerus
    lhumerus lradius
    lradius lwrist
    lwrist lhand lthumb
    lhand lfingers
    rclavicle rhumerus
    rhumerus rradius
    rradius rwrist
    rwrist rhand rthumb
    rhand rfingers
  end

#!OML:ASF E:\emotionWalksFemale\Project 1\Capture day 1\Session 1\Female1.ASF
:FULLY-SPECIFIED
:DEGREES
483
root 8.8627 14.6845 30.8521 184.994 7.08023 182.257
lowerback 6.51274 4.45137 6.31916
upperback -4.2164 6.75304 0.417336
thorax -7.433 3.04708 -3.91432
lowerneck -5.71977 -3.35122 -5.70702
upperneck 0.210182 -4.17193 1.67763
head 1.20019 -2.09534 1.37574
rclavicle 2.06985e-014 2.18663e-014
rhumerus 1.67108 13.121 -74.1405
rradius 33.7999
rwrist 21.0343
rhand -0.587979 -56.0993
rfingers 7.12502
rthumb 25.0271 -84.4798
lclavicle 2.06985e-014 2.18663e-014
lhumerus -68.7446 23.6936 33.1024
lradius 33.4103
lwrist -4.74982
lhand -12.2477 -27.3976
lfingers 7.12502
lthumb 13.8183 2.12341
rfemur 26.6624 15.17 35.9535
rtibia -8.90555e-014
rfoot -15.5634 -19.9425
rtoes 4.49268
lfemur -43.4615 -22.3982 -14.1584
ltibia 25.6007
lfoot -18.9591 14.644
ltoes -20.5395
484
root 8.85878 14.6742 30.6696 185.004 7.87176 182.066
lowerback 6.56626 4.46221 6.2633
upperback -4.29339 6.76397 0.335666
thorax -7.54193 3.04623 -3.98046
lowerneck -5.9743 -3.14109 -5.41251
upperneck 0.344984 -3.89533 1.70277
head 1.27033 -1.95586 1.33792
rclavicle -5.38209e-014 -1.47101e-014
rhumerus 1.75974 15.2728 -74.9269
rradius 35.387
rwrist 20.4749
rhand -1.31809 -55.5916
rfingers 7.12502
rthumb 24.3273 -84.0678
lclavicle -5.38209e-014 -1.47101e-014
lhumerus -69.5909 23.8213 32.2355
lradius 32.1942
lwrist -6.53384
lhand -11.1207 -25.7866
lfingers 7.12502
lthumb 14.9043 3.65726
rfemur 27.2723 14.9789 35.3323
rtibia -6.36111e-015
rfoot -14.2337 -19.0721
rtoes 0.926988
lfemur -42.5255 -20.6796 -15.5778
ltibia 26.1098
lfoot -18.2417 13.6944
ltoes -18.9181
485
root 8.85537 14.658 30.4803 184.877 8.62725 182.243
lowerback 6.6654 4.47119 6.50514
upperback -4.28906 6.81669 0.419895
thorax -7.5746 3.06091 -4.0396
lowerneck -6.06476 -2.96401 -5.15878
upperneck 0.37248 -3.67113 1.67313
head 1.27957 -1.84333 1.29061
rclavicle -8.15141e-014 -9.54166e-015
rhumerus 1.6865 17.5438 -75.539
rradius 37.1354
rwrist 20.1476
rhand -2.71377 -54.5336
rfingers 7.12502
rthumb 22.9886 -83.1828
lclavicle -8.15141e-014 -9.54166e-015
lhumerus -70.4451 23.6436 31.8435
lradius 31.4349
lwrist -8.74203
lhand -8.98666 -24.7226
lfingers 7.12502
lthumb 16.9593 4.55704
rfemur 28.0584 14.7364 35.1283
rtibia 9.85972e-014
rfoot -12.8741 -17.9691
rtoes -1.05869
lfemur -41.4199 -18.9216 -16.6241
ltibia 26.7197
lfoot -17.6892 12.8224
ltoes -20.3717
486
root 8.85516 14.664 30.2855 184.814 9.44276 182.198
lowerback 6.63343 4.50513 6.4358
upperback -4.31849 6.8596 0.461247
thorax -7.59587 3.08628 -3.96173
lowerneck -6.15244 -2.73851 -5.16838
upperneck 0.443407 -3.36797 1.92084
head 1.3136 -1.68679 1.3809
rclavicle 1.77912e-014 4.37326e-015
rhumerus 1.61552 19.7965 -76.149
rradius 38.6187
rwrist 20.015
rhand -4.86567 -52.8683
rfingers 7.12502
rthumb 20.9225 -81.7599
lclavicle 1.77912e-014 4.37326e-015
lhumerus -71.3653 23.5944 31.4641
lradius 30.8251
lwrist -11.7192
lhand -6.33412 -23.6371
lfingers 7.12502
lthumb 19.5111 5.40395
rfemur 28.7316 14.5907 34.5999
rtibia 2.54444e-014
rfoot -11.4404 -17.0148
rtoes -1.27385
lfemur -40.1442 -17.3472 -17.7317
ltibia 27.4064
lfoot -17.7452 11.9534
ltoes -20.2482
487
root 8.86326 14.6693 30.081 184.776 10.2546 182.203
lowerback 6.50841 4.54222 6.35785
upperback -4.37622 6.89877 0.468579
thorax -7.59099 3.11083 -3.90658
lowerneck -6.26692 -2.52738 -5.10319
upperneck 0.59708 -3.08681 2.14561
head 1.37685 -1.54122 1.45027
rclavicle -2.72583e-014 6.36111e-015
rhumerus 1.42941 21.8631 -76.9149
rradius 40.0476
rwrist 19.9479
rhand -6.89274 -51.9397
rfingers 7.12502
rthumb 18.974 -81.0342
lclavicle -2.72583e-014 6.36111e-015
lhumerus -71.8887 23.5054 31.3045
lradius 29.9972
lwrist -14.9767
lhand -3.54427 -21.5277
lfingers 7.12502
lthumb 22.1915 7.21845
rfemur 29.4094 14.4498 34.129
rtibia -3.49861e-014
rfoot -9.71137 -15.7765
rtoes -0.951966
lfemur -39.1076 -16.2267 -18.4104
ltibia 28.0742
lfoot -17.4772 11.6692
ltoes -17.2743
488
root 8.87523 14.6899 29.8678 184.723 10.9698 182.247
lowerback 6.20133 4.60181 6.09289
upperback -4.37456 6.94484 0.607345
thorax -7.45237 3.16138 -3.59104
lowerneck -6.2915 -2.40084 -5.07603
upperneck 0.672856 -2.91921 2.2277
head 1.4006 -1.45554 1.47756
rclavicle 3.0911e-014 -2.26615e-014
rhumerus 0.963226 23.9521 -77.4993
rradius 41.6997
rwrist 19.8948
rhand -8.32312 -51.9234
rfingers 7.12502
rthumb 17.5979 -81.147
lclavicle 3.0911e-014 -2.26615e-014
lhumerus -72.2008 23.377 31.625
lradius 29.2735
lwrist -18.467
lhand -0.322366 -20.0896
lfingers 7.12502
lthumb 25.2816 8.2552
rfemur 30.0636 14.2238 33.6871
rtibia 2.54444e-014
rfoot -7.84338 -14.4316
rtoes -2.17222
lfemur -38.3316 -15.38 -18.8931
ltibia 28.6358
lfoot -16.3629 12.5345
ltoes -19.1573
489
root 8.87647 14.7228 29.6542 184.667 11.462 182.135
lowerback 6.05887 4.56986 6.0495
upperback -4.44767 6.88825 0.539021
thorax -7.45037 3.13408 -3.62303
lowerneck -6.4295 -2.26796 -5.06785
upperneck 0.917834 -2.73921 2.51568
head 1.50368 -1.35903 1.57496
rclavicle -4.93483e-014 -1.86858e-014
rhumerus 0.0656104 25.9163 -78.4007
rradius 43.4166
rwrist 20.0409
rhand -10.1153 -51.7058
rfingers 7.12502
rthumb 15.8726 -81.0753
lclavicle -4.93483e-014 -1.86858e-014
lhumerus -72.413 23.0709 32.129
lradius 28.992
lwrist -22.104
lhand 3.35459 -19.9058
lfingers 7.12502
lthumb 28.7993 7.89226
rfemur 30.5496 13.8251 32.9728
rtibia 1.27222e-014
rfoot -5.82995 -13.4226
rtoes -3.30056
lfemur -37.7201 -15.0496 -19.3631
ltibia 28.906
lfoot -15.2599 14.2917
ltoes -24.8933
